<svg viewBox="48 180.31914893617022 544.0000000000001 263.29787234042544" xmlns="http://www.w3.org/2000/svg" overflow="visible" xmlns:xlink="http://www.w3.org/1999/xlink" width="544.0000000000001px" height="263.29787234042544px"><g id="Master/Stickers/Computer" stroke="none" stroke-width="1" fill="none" fill-rule="evenodd"><path d="M427.878604,220.116925 C427.249741,228.896153 426.365824,237.66192 425.360452,246.407496 C423.073063,266.325655 420.641278,286.226315 418.286415,306.136398 C418.117728,307.556527 418.093437,308.991464 417.963886,310.986376 C420.384875,311.189636 422.513024,311.357898 424.639823,311.549043 C430.083674,312.040368 431.512787,313.145511 432.084971,318.624116 C432.666602,324.209062 433.182108,329.869389 432.93785,335.461065 C431.852859,360.128245 429.197058,397.361217 427.878604,422.017629 C427.311669,432.619886 427.474084,435.521641 427.791826,435.670401 L427.801581,435.67245 L427.734466,435.814043 C426.665216,437.96542 424.71006,439.18678 421.522497,439.283949 C410.251539,439.62855 398.98328,440.204678 387.733914,440.974644 C383.577479,441.260016 381.842032,439.112995 381.145694,435.724876 C380.609946,433.113453 380.642333,430.384919 380.430463,427.707537 C379.793503,419.688853 378.464253,398.747694 378.044561,390.716895 C377.757119,385.218099 377.989232,379.693728 377.989232,373.130171 C364.17988,373.832833 350.86714,374.511264 336.809482,375.22604 C336.566573,379.902372 336.349305,384.230066 336.114493,388.556414 C335.513969,399.544582 332.299217,411.034844 331.624471,422.017629 C331.476027,424.448675 330.570115,426.117337 329.968242,428.473002 C328.931832,432.524746 330.135304,436.9687 325.260939,437.43041 C312.826719,438.609589 304.914019,436.190657 292.483847,437.43041 C273.465455,439.327057 255.041331,438.702469 235.99595,440.312398 C233.164715,440.552003 227.146885,440.312398 224.285962,440.312398 C222.805569,435.237622 221.743691,436.280845 222.932593,432.344865 C223.905577,429.120969 226.708472,428.064285 229.767771,427.616036 C242.613586,425.738234 255.451304,423.797166 268.310614,422.017629 C279.195617,420.511349 290.104911,419.194869 301.497323,417.731664 C301.497323,404.834733 301.84954,390.949769 301.84954,378.187448 C295.130419,378.918377 287.414023,379.260285 280.443897,379.874104 C254.815693,382.128813 229.206382,384.59755 203.588974,386.957253 C198.709211,387.406849 193.824049,387.867213 188.930791,388.075858 C180.063279,388.455456 179.442512,387.807985 180.267052,379.281823 C181.279171,368.815939 182.447831,358.366208 183.477494,347.90167 C186.30198,319.186783 189.080585,290.467859 191.901023,261.751626 C192.450266,256.155912 193.008956,250.556159 193.736332,244.981982 C194.46101,239.413189 195.666106,237.99306 200.864349,237.260784 C222.944739,234.151306 245.004886,230.852029 267.143303,228.220414 C297.072338,224.66134 327.048605,221.450905 357.041067,218.469306 C378.502039,216.337092 400.022389,214.793122 421.522497,213.063391 C426.742332,212.643409 428.299646,214.234493 427.878604,220.116925 Z M428.537157,433.273638 C428.900656,431.263219 428.237047,435.706835 427.814239,435.676375 L427.801581,435.67245 L427.832123,435.609632 C428.117372,434.988263 428.333401,434.293807 428.487918,433.530586 Z M83.7846105,418.594776 C100.91585,415.621758 117.863879,417.448092 134.648631,421.194357 C140.534962,422.508756 144.098487,426.900164 145.672515,435.480102 C137.865472,435.072418 130.905671,434.453785 123.937001,434.398556 C109.127908,434.280778 94.3153702,434.465383 79.5046839,434.5095 C77.0374,434.516659 74.0483146,435.153651 73.3435143,431.498315 C72.6487343,427.889345 72.8323332,424.003816 76.1047347,421.822961 C78.4216978,420.278328 81.1300549,419.056697 83.7846105,418.594776 Z M519.10109,330 C519.10109,330 522.429189,331.532485 524.126291,332.579362 C529.862441,336.118936 536.088294,339.161896 537.875782,346.283687 C538.992794,350.73945 539.282839,355.679445 538.721635,360.245261 C537.703104,368.521231 534.222562,376.107996 529.681668,382.980793 C519.573256,398.283635 516.421881,414.425629 522.922941,432.038204 C523.082128,432.468786 523.652775,433.262541 524.120895,435 L524.120895,435 L487.523937,435 C488.182272,431.98868 488.112121,430.699687 488.279403,428.616938 C488.914805,420.716522 486.158701,413.996423 482.000937,407.561086 C476.882651,399.641411 471.852053,391.647451 467.13983,383.473279 C461.890687,374.365035 459.699834,364.509806 461.776018,353.951616 C463.067056,347.391094 466.142884,341.826549 470.929305,337.227718 C473.002791,335.235762 477.012159,331.430686 479.513293,331.108782 C479.513293,331.108782 482.253209,333.642748 483.901745,334.076081 C491.762644,336.135444 498.104516,337.339146 506.201498,335.172482 C508.091514,334.666239 510.074613,334.348461 511.82163,333.52169 C514.383471,332.308357 516.435372,331.941056 519.10109,330 Z" id="Fill" fill="#FFF"/><path d="M145.544872,432.348762 C143.83536,424.781338 140.271784,420.941433 134.506535,419.850257 C118.06708,416.740309 101.507617,415.329942 84.867454,418.165391 C82.289018,418.605851 79.6736306,419.7187 77.4463924,421.112425 C74.3007005,423.080229 74.2009798,426.518044 74.9519266,429.700727 C75.713588,432.924286 78.6145771,432.324991 81.0197238,432.288893 C95.4573879,432.071188 109.893991,431.72924 124.333405,431.654703 C131.128111,431.619456 137.925666,432.082482 145.544872,432.348762 M428.878604,219.126167 C428.249741,227.916796 427.365824,236.693946 426.360452,245.450878 C424.073063,265.394902 421.641278,285.321405 419.286415,305.257342 C419.130704,306.569933 419.098029,307.895157 418.992028,309.662361 L418.963886,310.113618 C421.384875,310.317143 423.513024,310.485623 425.639823,310.677016 C431.083674,311.168979 432.512787,312.275558 433.084971,317.761276 C433.666602,323.353475 434.182108,329.021152 433.93785,334.620089 C432.852859,359.319302 431.727717,398.449452 430.409264,423.137882 C430.214937,426.790535 429.868117,430.46071 429.219012,434.055405 C428.545615,437.779494 426.48764,439.942781 422.204352,440.073522 C410.933394,440.41857 399.665135,440.995446 388.415769,441.766412 C384.259334,442.052155 382.523887,439.902346 381.827549,436.509826 C381.291801,433.895012 381.324189,431.162936 381.112318,428.482077 C380.475358,420.45298 379.464253,397.988901 379.044561,389.947673 C378.757119,384.441737 378.989232,378.910192 378.989232,372.338112 C365.17988,373.041686 351.86714,373.720998 337.809482,374.436703 C337.566573,379.119107 337.349305,383.452421 337.114493,387.784386 C336.513969,398.786824 336.090693,414.728693 335.415947,425.725739 C335.267502,428.159943 334.930129,430.621103 334.328256,432.979827 C333.291846,437.036833 331.240618,439.611212 326.366253,440.073522 C313.932033,441.254232 302.497323,440.073522 287.471504,440.296074 C268.341344,440.579418 251.303923,442 231.887849,441.966304 C229.044354,441.961369 226.187594,442 223.326671,442 C221.846278,436.918634 222.743691,432.875107 223.932593,428.934015 C224.905577,425.705933 227.708472,424.647877 230.767771,424.199045 C243.613586,422.318805 256.451304,420.375216 269.310614,418.593368 C280.195617,417.085133 291.104911,415.766943 302.497323,414.301838 C302.497323,401.38816 302.84954,390.18085 302.84954,377.401956 C296.130419,378.133834 288.414023,378.476186 281.443897,379.090802 C255.815693,381.348439 230.206382,383.820382 204.588974,386.183149 C199.709211,386.633329 194.824049,387.094291 189.930791,387.303206 C181.063279,387.683298 180.442512,387.034986 181.267052,378.497752 C182.279171,368.018277 183.447831,357.554976 184.477494,347.076849 C187.30198,318.324674 190.080585,289.568456 192.901023,260.814934 C193.450266,255.211953 194.008956,249.604928 194.736332,244.023513 C195.46101,238.447489 196.666106,237.025515 201.864349,236.292289 C223.944739,233.178773 246.004886,229.875211 268.143303,227.240179 C298.072338,223.676483 328.048605,220.461879 358.041067,217.476408 C379.502039,215.341426 401.022389,213.795451 422.522497,212.063473 C427.742332,211.642946 429.299646,213.236096 428.878604,219.126167 Z M491.770319,188.286501 C492.391899,189.301296 492.571616,190.522283 492.605398,191.709579 C492.863489,200.609582 486.381491,211.301983 480.240011,217.764053 C476.875372,221.304378 469.073193,228.541358 469.073193,228.541358 C469.073193,228.541358 468.421885,233.758183 469.246154,237.697417 C473.199943,232.275747 477.940166,227.426836 483.27224,223.346096 C484.899158,222.10085 486.874701,220.863691 488.86646,221.35559 C492.933754,222.356907 492.171643,228.45376 489.915038,231.972522 C485.172113,239.364483 477.922599,245.123071 469.63802,248.078508 C469.612346,248.087941 469.585321,248.096027 469.559647,248.106809 C472.506746,261.617185 477.83747,274.607361 485.230217,286.303775 C485.901794,280.980485 487.796261,275.814872 490.727146,271.317702 C489.720456,269.433662 489.078608,266.148046 489.078608,266.148046 C483.74383,265.425696 481.992596,263.464838 480.575124,261.200755 C477.198324,255.800648 481.100764,247.49901 487.421962,246.632459 C493.744511,245.765908 499.746811,252.711792 497.953688,258.820773 C497.440209,260.571394 497.584794,262.809871 493.663435,265.156162 C493.663435,265.156162 494.062057,267.16284 494.228262,268.980845 C496.32677,267.459328 498.542837,265.887946 501.115638,265.549681 C503.689789,265.211417 506.686885,266.580648 507.224687,269.112917 C507.467914,270.26113 507.184149,271.451121 506.82066,272.566991 C505.500479,276.638297 503.112801,280.35921 499.96031,283.259392 C498.936054,284.201413 497.800995,285.097612 497.199684,286.350944 C496.52,287.767343 496.624047,289.41689 496.742958,290.98288 C497.502367,300.948889 498.261775,310.916244 499.019832,320.8836 L505.945043,321.1437 C505.404539,293.84398 511.51494,266.4351 523.601967,241.935835 C525.334283,238.425158 527.220643,234.863271 527.589537,230.968509 C527.794929,228.806849 527.523325,226.600715 527.961134,224.475442 C529.193483,218.506619 536.675414,214.85848 542.25612,217.33819 C547.835476,219.8179 550.190723,227.518478 547.158494,232.809424 C544.128968,238.10037 536.551098,240.057185 531.196052,237.121963 C519.638719,259.242593 513.416164,285.985726 513.501293,310.929721 C515.633582,309.042985 518.794181,306.319347 520.926471,304.432612 C518.767156,298.529824 517.111862,291.163468 517.805058,284.91972 C518.10639,282.201473 519.226585,278.952244 521.934511,278.510209 C525.71669,277.894324 527.465221,283.097672 527.259829,286.914269 C527.00309,291.621675 526.190982,297.370829 524.660004,301.831611 C529.973161,297.865423 534.426916,292.639165 539.738722,288.672977 C533.104032,282.511436 529.912354,273.755635 529.819117,264.715475 C529.786687,261.431207 530.632576,257.580918 533.63778,256.23864 C536.526775,254.947574 540.042755,256.828919 541.648053,259.551209 C543.254702,262.273499 543.438474,265.569896 543.580356,268.724788 C543.837095,274.353999 544.091132,279.98321 544.345169,285.612422 C547.428746,282.280985 553.63914,276.569566 555.2039,272.998245 C555.2039,272.998245 552.274367,263.503921 552.19194,259.483826 C552.029789,251.566273 551.982495,249.589244 553.809399,241.885971 C554.326932,239.709486 556.130865,236.724401 558.340176,235.925233 C563.026348,234.229867 564.92487,244.05437 565.119451,246.864258 C565.265387,248.941015 564.942436,251.182188 564.569488,253.222558 C563.669549,258.15772 561.815619,262.99585 559.172553,267.265263 C564.33572,262.136037 576.551117,250.870877 583.647938,249.219983 C585.366741,248.821073 587.350392,248.591969 588.735434,249.67819 C591.231213,251.633657 589.611051,255.656447 587.505787,258.024301 C584.824886,261.039035 581.598075,263.567261 578.026693,265.452649 C572.645973,268.292187 558.352338,275.182815 558.352338,275.182815 C556.487598,276.845838 550.896081,284.76339 544.52759,290.830594 C545.547791,290.792859 548.638125,289.79828 549.863718,289.340073 C551.500095,288.728231 553.139174,288.131214 554.771497,287.509939 C558.476654,286.096235 562.166947,284.654229 565.958584,283.477715 C567.599015,282.968296 569.42727,282.515479 570.986625,283.236482 C574.653947,284.934544 574.993113,290.617662 572.850014,293.540755 C570.278565,297.051431 565.566719,298.244118 561.211605,298.453007 C556.352472,298.686153 551.450098,297.994799 546.846353,296.427461 C544.730279,295.706458 540.485969,294.710531 540.485969,294.710531 C538.83608,295.493527 537.288886,296.835804 535.99573,297.963803 C528.839453,304.198117 521.684528,310.432431 514.528251,316.666746 C519.567102,312.670909 525.603184,309.937837 531.936543,308.782885 C535.734936,308.090184 540.950803,308.968864 541.418339,312.792199 C541.82642,316.119592 538.142883,318.356722 534.971474,319.468548 C528.469208,321.747456 521.66561,323.170594 514.791747,323.686751 C525.674801,327.430574 537.588866,332.0396 542.78041,342.287271 C547.551711,351.707473 545.081607,363.203085 540.696766,372.807918 C536.311925,382.412751 530.110989,391.258847 527.205779,401.408138 C524.447856,411.043967 524.876206,421.561172 528.409752,430.942292 C529.315097,433.346533 530.204226,436.563417 528.115177,438.063372 C527.255776,438.680604 526.132878,438.760117 525.076192,438.814024 C512.816204,439.444732 500.191375,440.431226 487.921928,439.793778 C483.584382,439.568718 482.056106,437.417839 482.102049,433.219852 C482.169612,427.160734 481.673699,421.454706 479.422499,415.751373 C475.995702,407.081822 469.682612,399.917617 464.673488,392.049928 C457.656392,381.030043 453.091833,367.793244 455.313306,354.927053 C457.511807,342.191586 466.654436,330.869824 478.66309,326.016869 C478.633362,321.286553 476.403782,316.615534 472.743217,313.608886 C470.392024,311.676329 467.423304,310.324618 465.845031,307.724966 C464.26811,305.125313 465.445058,300.67666 468.4908,300.742695 L466.082853,294.264453 L466.082853,294.264453 C460.712943,296.609396 453.643147,293.387121 451.908129,287.802383 C450.171759,282.216297 454.172842,275.572292 459.931915,274.475289 C465.690988,273.379635 471.864898,278.087041 472.313516,283.918402 C472.73511,289.414194 469.100218,295.924781 472.947257,299.88423 C477.00104,299.71712 481.077793,300.147026 485.005908,301.153734 C481.554788,291.59607 477.545598,282.23786 473.005362,273.145141 C471.704098,270.537402 467.635452,262.610416 467.635452,262.610416 L467.606667,262.609752 C467.112251,262.597772 460.36642,262.41176 456.521333,261.101028 C450.6447,259.098392 445.280195,255.61467 441.066964,251.063593 C438.260396,248.032687 436.369982,242.404823 440.006225,240.434532 C441.596658,239.572024 443.56004,239.958805 445.29641,240.47631 C452.687806,242.681095 461.319659,247.769891 466.511203,253.461095 C465.270746,249.263108 463.428977,241.732337 463.189804,235.847069 C462.987115,230.882258 463.669502,225.209922 463.669502,225.209922 C463.145212,224.03745 452.968868,217.513387 450.240673,213.056647 C446.899005,207.602633 444.912652,201.330584 444.509976,194.952069 C444.347825,192.395542 444.661318,189.395632 446.826037,188.016968 C450.190676,185.874175 453.52829,190.0789 456.406475,192.837578 C463.549239,199.67969 468.593496,204.830479 467.753011,221.595475 C469.697476,212.71434 473.181026,198.425011 478.872536,191.324146 C480.499453,189.294557 482.361491,187.301356 484.808624,186.407851 C487.254406,185.513 490.412302,186.069587 491.770319,188.286501 Z M98.6354955,411.00388 C109.129462,411.15192 119.606499,412.403717 130.09482,413.138836 C140.37319,413.859867 147.643879,418.624515 151.214923,428.552098 C151.619522,429.675987 152.394332,430.667007 153.227202,432.120428 C161.66559,432.415338 170.219584,432.683237 178.769314,433.034691 C180.962265,433.126182 183.254437,433.157688 185.287628,433.845722 C185.40497,433.884925 185.519148,433.937517 185.630207,434.002151 C187.76565,435.239183 186.784098,438.588127 184.325036,438.777599 C182.672094,438.906139 181.310665,438.992215 179.948958,438.970276 C150.705494,438.512581 121.464751,437.78362 92.2188788,437.626905 C82.4918906,437.573172 72.7789489,438.122057 63.0695145,438.725067 C59.712637,438.935813 56.3288384,438.874256 52.9636245,438.705344 C50.8089632,438.598991 48.0555399,438.757923 48.0151073,435.702677 C47.9707653,432.450184 50.7349758,432.909956 52.8944661,432.916574 C56.3232616,432.925701 59.7504703,433.057628 63.1766053,432.988358 C64.8532476,432.9538 66.5226956,432.584176 68.6082491,432.312799 C68.6649445,430.687959 68.705151,429.265051 68.7656147,427.841502 C69.1012103,419.84738 72.0834809,415.372205 79.7966884,413.485727 C85.9274604,411.988114 92.3577182,410.915436 98.6354955,411.00388 Z M301.606658,420.499218 C285.079428,422.479198 269.074452,424.310916 253.095117,426.350202 C246.558177,427.184516 240.083314,428.497315 233.572015,429.537849 C230.148354,430.085073 228.217231,431.707875 229.12139,436.721849 C245.333235,436.721849 288.368247,434.414343 301.606658,433.810367 L301.606658,420.499218 Z M425.884081,388.172565 C412.4175,394.190681 398.447558,394.92256 385.627384,389.435493 C386.179326,399.495789 386.679987,425.9123 387.213037,435.593853 C399.617568,434.95228 411.047766,434.361925 423.55081,433.716308 C424.344311,423.031961 425.074386,399.088741 425.884081,388.172565 Z M334.029554,306.435356 C325.642461,307.284497 318.253992,308.03255 310.780505,308.788689 C309.808871,349.954493 308.472984,392.777469 307.5,434.068621 C307.5,434.068621 328.55899,433.00113 328.55899,432.989293 C331.954312,392.117319 332.840652,347.378766 334.029554,306.435356 Z M518.82526,330.950684 C516.155169,332.852244 514.099902,333.212071 511.533858,334.400715 C509.783975,335.210664 507.797622,335.521975 505.904506,336.017917 C497.794239,338.140495 491.441962,336.961285 483.568166,334.943825 C481.916926,334.51931 479.172515,332.036904 479.172515,332.036904 C476.667278,332.352259 472.651331,336.07991 470.574444,338.031334 C465.780171,342.536589 462.699296,347.987908 461.40614,354.414939 C459.32655,364.758294 461.520997,374.412991 466.778752,383.335904 C471.498706,391.34375 476.537557,399.175051 481.66424,406.933579 C485.828826,413.237972 488.589451,419.821332 487.953007,427.560992 C487.785451,429.601362 487.855717,430.864127 487.196301,433.814174 L523.853301,433.814174 C523.384414,432.112068 522.81283,431.334464 522.653382,430.912643 C516.141656,413.658444 519.298201,397.844903 529.423198,382.853439 C533.971541,376.120487 537.457794,368.688096 538.477996,360.580522 C539.04012,356.107611 538.749599,351.268133 537.630755,346.903035 C535.840335,339.926156 529.604267,336.945113 523.858706,333.477562 C522.15882,332.451986 518.82526,330.950684 518.82526,330.950684 Z M391.635322,385.588751 C401.672844,388.105173 413.989658,386.879984 419.878842,382.955067 C410.286652,380.419775 401.404295,380.576125 391.635322,385.588751 Z M207.619933,242.077228 C200.849531,242.524712 200.778008,242.517973 200.275997,247.545425 C196.340878,286.948251 192.43005,326.356467 188.521921,365.763337 C188.02126,370.802919 187.579976,375.849241 186.949763,382.626193 L187.005601,382.633821 C187.496171,382.699929 191.055662,383.160775 191.138586,382.626193 C198.236915,336.827855 201.355591,288.165352 207.619933,242.077228 Z M213.519912,240.953128 C208.074712,287.538605 202.741519,335.136313 197.285523,381.814792 C233.088897,378.385881 267.652088,374.098394 303.027673,371.549624 C303.718613,359.517435 305.053261,347.25746 304.209828,334.702308 C301.402884,334.702308 299.446121,334.753526 297.490707,334.694221 C286.107741,334.346477 279.248273,328.810889 276.506105,317.792277 C272.291642,300.868767 285.453238,282.730852 302.834696,281.508358 C313.604992,280.750871 321.84634,286.150328 325.469726,296.318451 C325.951495,297.671685 326.595202,299.601795 327.157941,301.0359 C329.048579,301.0359 330.672018,300.57359 332.345388,300.409153 C339.870156,299.666492 339.96462,299.636839 339.763546,307.483978 C339.287175,326.093638 338.696098,344.700603 338.195436,363.310263 C338.152253,364.896674 338.432947,366.492519 338.586789,368.382194 C361.335177,367.538445 383.545117,366.802523 405.977724,362.373513 C411.120638,314.138276 420.208118,266.812832 422.653397,218.688119 C404.802316,217.458886 246.405685,234.343308 213.519912,240.953128 Z M427.184992,316.964701 L417.389029,316.964701 C415.576661,331.854317 413.698168,346.393493 412.082826,360.962322 C411.372993,367.37266 411.632096,367.489923 405.011488,368.630197 C398.544722,369.743515 392.041519,370.645222 384.898658,371.73967 C385.196896,375.130841 385.458697,378.09879 385.783925,381.791879 C399.177633,374.171178 412.33923,374.115916 426.618205,378.528752 C428.224101,357.553628 429.085077,337.388558 427.184992,316.964701 Z M299.922492,287.906566 C290.868749,290.265291 285.210329,296.251059 282.580169,305.138732 C277.962207,320.746747 287.826994,331.31518 304.207129,327.836398 C304.319137,326.789125 304.557997,325.61785 304.5499,324.447923 C304.517512,320.051261 304.375816,315.655946 304.331282,311.259284 C304.269206,305.229037 305.250286,303.941848 311.030161,302.843356 C313.893783,302.298828 316.811385,302.034651 320.2256,301.572341 C318.135237,290.471511 310.184029,285.232447 299.922492,287.906566 Z M482.237175,316.123635 C482.926318,318.987431 484.48297,323.644973 484.48297,323.644973 C486.382842,323.153074 489.762345,322.262265 492.504053,321.630209 L492.488544,321.598136 C492.350225,321.313909 491.303901,319.200734 490.042056,317.677497 C489.41372,316.91876 484.169477,316.35813 482.237175,316.123635 Z M491.939226,290.09881 C491.335213,290.226838 488.773223,292.906003 488.169209,293.034032 C488.517834,294.946373 490.592019,300.791211 490.940645,302.703553 C491.939226,303.248011 493.663435,304.944726 493.663435,304.944726 C493.251301,302.963653 492.351361,292.079882 491.939226,290.09881 Z M458.618489,282.472354 C457.810435,283.760725 457.500997,286.542313 458.310402,287.427731 C460.5062,289.831972 463.149266,288.778095 465.262638,286.747158 C465.657206,286.368464 465.932863,285.868479 466.243653,285.270114 C466.667949,284.450731 466.584171,283.452109 466.013939,282.725716 C465.746389,282.386103 465.518026,282.107136 465.261287,281.855122 C462.811451,279.441448 460.294052,279.795885 458.618489,282.472354 Z M485.197787,256.791184 C485.278862,258.661748 485.978816,259.989201 487.674648,260.667079 C489.421828,261.363823 491.43926,260.79915 492.643233,259.355797 C493.287785,258.57954 492.799979,256.047271 492.598642,255.559415 C491.81491,253.671332 490.854164,253.315547 488.94213,252.769741 C486.443649,252.055477 485.091037,254.27913 485.197787,256.791184 Z M537.865874,222.474155 C534.686358,222.926971 533.262129,225.09537 533.30537,228.053502 C533.339151,230.548036 536.415972,233.283803 538.649606,232.537195 C539.784665,232.155805 540.737303,231.228609 541.500766,230.424051 C542.268282,229.61545 542.595287,228.486104 542.365573,227.39584 C541.735885,224.40132 539.654944,222.219445 537.865874,222.474155 Z" id="Stroke" fill="#000"/></g></svg>